<svg width="1200" height="760" viewBox="0 0 1200 760" fill="none" xmlns="http://www.w3.org/2000/svg">
  <rect width="1200" height="760" fill="#071114"/>
  <rect x="68" y="68" width="1064" height="624" rx="24" fill="#0f2226" stroke="#31565a"/>
  <path d="M158 566L342 424L536 494L744 282L1000 194" stroke="#54d8b0" stroke-width="6" stroke-linecap="round" stroke-linejoin="round"/>
  <path d="M158 566L342 424L536 494L744 282L1000 194" stroke="#ffffff" stroke-opacity=".15" stroke-width="18" stroke-linecap="round" stroke-linejoin="round"/>
  <circle cx="158" cy="566" r="24" fill="#7eb6e4" stroke="#edf7f4" stroke-width="5"/>
  <circle cx="342" cy="424" r="24" fill="#54d8b0" stroke="#edf7f4" stroke-width="5"/>
  <circle cx="536" cy="494" r="24" fill="#f2bd65" stroke="#edf7f4" stroke-width="5"/>
  <circle cx="744" cy="282" r="24" fill="#b9a5ff" stroke="#edf7f4" stroke-width="5"/>
  <circle cx="1000" cy="194" r="24" fill="#e69bb7" stroke="#edf7f4" stroke-width="5"/>
  <rect x="130" y="118" width="408" height="74" rx="14" fill="#071114"/>
  <text x="158" y="166" fill="#edf7f4" font-family="Inter, Arial, sans-serif" font-size="38" font-weight="850">GeoCV Tutorial</text>
  <rect x="130" y="218" width="268" height="28" rx="14" fill="#54d8b0"/>
  <rect x="130" y="266" width="372" height="20" rx="10" fill="#d5e4df" fill-opacity=".6"/>
  <rect x="130" y="302" width="318" height="20" rx="10" fill="#d5e4df" fill-opacity=".42"/>
  <rect x="774" y="442" width="258" height="126" rx="16" fill="#102f37" stroke="#54d8b0" stroke-opacity=".42"/>
  <text x="804" y="494" fill="#54d8b0" font-family="Inter, Arial, sans-serif" font-size="28" font-weight="850">GeoJSON</text>
  <text x="804" y="532" fill="#edf7f4" fill-opacity=".72" font-family="Inter, Arial, sans-serif" font-size="22" font-weight="700">map · filters · links</text>
</svg>
